<?xml version="1.0" encoding="utf-8"?>
<!-- Generator: Adobe Illustrator 24.3.0, SVG Export Plug-In . SVG Version: 6.00 Build 0)  -->
<svg version="1.1" id="Layer_1" xmlns="http://www.w3.org/2000/svg" xmlns:xlink="http://www.w3.org/1999/xlink" x="0px" y="0px"
	 viewBox="0 0 1920 1080" style="enable-background:new 0 0 1920 1080;" xml:space="preserve">
<style type="text/css">
	.st0{fill:#00F381;}
	.st1{fill:none;stroke:#000000;stroke-width:2.6366;stroke-miterlimit:10;}
</style>
<g>
	<g>
		<g>
			<path d="M471.61,471.2c9.39,0,15.53,4.6,19.44,10.3l-6.94,4c-2.53-3.71-7.08-6.6-12.5-6.6c-9.54,0-16.62,7.49-16.62,17.87
				c0,10.38,7.08,17.94,16.62,17.94c4.91,0,9.25-2.37,11.42-4.45v-7.71h-14.38v-7.64h22.83v18.53c-4.77,5.41-11.49,8.97-19.87,8.97
				c-13.94,0-25.29-10.16-25.29-25.65C446.32,481.28,457.66,471.2,471.61,471.2z"/>
			<path d="M518.34,521.46v-49.44h8.45v41.81h21.24v7.64H518.34z"/>
			<path d="M594.05,471.2c14.45,0,24.64,10.82,24.64,25.57c0,14.75-10.19,25.57-24.64,25.57c-14.45,0-24.64-10.82-24.64-25.57
				C569.41,482.02,579.6,471.2,594.05,471.2z M594.05,478.91c-9.75,0-15.97,7.64-15.97,17.87c0,10.16,6.21,17.86,15.97,17.86
				c9.68,0,15.97-7.71,15.97-17.86C610.02,486.55,603.73,478.91,594.05,478.91z"/>
			<path d="M644.9,521.46v-49.44h23.7c8.81,0,13.73,5.63,13.73,12.6c0,6.23-3.9,10.38-8.38,11.34c5.13,0.82,9.32,6.08,9.32,12.16
				c0,7.64-4.99,13.34-14.02,13.34H644.9z M653.36,492.48h13.51c4.34,0,6.79-2.67,6.79-6.37c0-3.71-2.46-6.45-6.79-6.45h-13.51
				V492.48z M653.36,513.82h13.87c4.62,0,7.37-2.59,7.37-6.89c0-3.71-2.53-6.82-7.37-6.82h-13.87V513.82z"/>
			<path d="M743.87,521.46l-3.54-9.49H717.5l-3.54,9.49h-9.25l18.93-49.44h10.55l18.93,49.44H743.87z M728.92,479.35l-9.03,24.98
				h18.06L728.92,479.35z"/>
			<path d="M776.45,521.46v-49.44h8.45v41.81h21.24v7.64H776.45z"/>
			<path d="M870.07,507.82c3.32,3.63,8.53,6.82,15.24,6.82c6.94,0,9.68-3.48,9.68-6.75c0-4.45-5.13-5.78-10.98-7.34
				c-7.87-2-17.12-4.37-17.12-14.83c0-8.15,7.01-14.46,17.56-14.46c7.52,0,13.58,2.45,18.06,6.89l-4.84,6.45
				c-3.76-3.85-8.89-5.63-13.94-5.63c-4.99,0-8.16,2.45-8.16,6.15c0,3.86,4.91,5.12,10.62,6.6c7.95,2.08,17.41,4.6,17.41,15.35
				c0,8.23-5.64,15.27-18.64,15.27c-8.89,0-15.32-3.19-19.58-7.86L870.07,507.82z"/>
			<path d="M927.28,496.78c0-15.2,11.05-25.57,24.93-25.57c10.11,0,16.11,5.19,19.72,11.12l-7.23,3.78
				c-2.31-4.08-6.94-7.19-12.5-7.19c-9.18,0-16.26,7.49-16.26,17.87c0,10.38,7.08,17.86,16.26,17.86c5.56,0,10.19-3.04,12.5-7.19
				l7.23,3.78c-3.69,5.93-9.61,11.12-19.72,11.12C938.33,522.35,927.28,511.97,927.28,496.78z"/>
			<path d="M1030.3,521.46v-21.57h-25.07v21.57h-8.45v-49.44h8.45v20.24h25.07v-20.24h8.45v49.44H1030.3z"/>
			<path d="M1089.53,471.2c14.45,0,24.64,10.82,24.64,25.57c0,14.75-10.19,25.57-24.64,25.57s-24.64-10.82-24.64-25.57
				C1064.89,482.02,1075.08,471.2,1089.53,471.2z M1089.53,478.91c-9.75,0-15.97,7.64-15.97,17.87c0,10.16,6.21,17.86,15.97,17.86
				c9.68,0,15.97-7.71,15.97-17.86C1105.5,486.55,1099.21,478.91,1089.53,478.91z"/>
			<path d="M1162.85,471.2c14.45,0,24.64,10.82,24.64,25.57c0,14.75-10.19,25.57-24.64,25.57s-24.64-10.82-24.64-25.57
				C1138.21,482.02,1148.4,471.2,1162.85,471.2z M1162.85,478.91c-9.75,0-15.97,7.64-15.97,17.87c0,10.16,6.21,17.86,15.97,17.86
				c9.68,0,15.97-7.71,15.97-17.86C1178.82,486.55,1172.53,478.91,1162.85,478.91z"/>
			<path d="M1213.7,521.46v-49.44h8.45v41.81h21.24v7.64H1213.7z"/>
			<path d="M1328.2,471.2c14.45,0,24.64,10.82,24.64,25.57c0,14.75-10.19,25.57-24.64,25.57s-24.64-10.82-24.64-25.57
				C1303.57,482.02,1313.75,471.2,1328.2,471.2z M1328.2,478.91c-9.75,0-15.97,7.64-15.97,17.87c0,10.16,6.21,17.86,15.97,17.86
				c9.68,0,15.97-7.71,15.97-17.86C1344.17,486.55,1337.88,478.91,1328.2,478.91z"/>
			<path d="M1379.06,521.46v-49.44h33.02v7.64h-24.56v12.82h24.06v7.64h-24.06v21.35H1379.06z"/>
			<path d="M1485.83,521.46v-41.81h-14.6v-7.64h37.64v7.64h-14.59v41.81H1485.83z"/>
			<path d="M1561.6,521.46L1550.91,503h-8.38v18.46h-8.45v-49.44h21.17c9.54,0,15.75,6.37,15.75,15.49
				c0,8.82-5.64,13.57-11.42,14.53l11.78,19.42H1561.6z M1554.09,479.65h-11.56v15.71h11.56c4.77,0,8.24-3.11,8.24-7.86
				C1562.33,482.76,1558.86,479.65,1554.09,479.65z"/>
			<path d="M1631.61,521.46l-3.54-9.49h-22.83l-3.54,9.49h-9.25l18.93-49.44h10.55l18.93,49.44H1631.61z M1616.65,479.35
				l-9.03,24.98h18.06L1616.65,479.35z"/>
			<path d="M1664.18,521.46v-49.44h17.92c15.03,0,25.21,10.23,25.21,24.76c0,14.53-10.19,24.68-25.21,24.68H1664.18z
				 M1672.63,513.82h9.47c10.48,0,16.54-7.71,16.54-17.05c0-9.56-5.78-17.12-16.54-17.12h-9.47V513.82z"/>
			<path d="M1733.53,521.46v-49.44h8.45v49.44H1733.53z"/>
			<path d="M1803.89,521.46l-25.14-36.03v36.03h-8.45v-49.44h8.67l24.64,35.06v-35.06h8.45v49.44H1803.89z"/>
			<path d="M1863.49,471.2c9.39,0,15.53,4.6,19.44,10.3l-6.94,4c-2.53-3.71-7.08-6.6-12.5-6.6c-9.54,0-16.62,7.49-16.62,17.87
				c0,10.38,7.08,17.94,16.62,17.94c4.91,0,9.25-2.37,11.42-4.45v-7.71h-14.38v-7.64h22.83v18.53c-4.77,5.41-11.49,8.97-19.87,8.97
				c-13.94,0-25.29-10.16-25.29-25.65C1838.2,481.28,1849.54,471.2,1863.49,471.2z"/>
		</g>
	</g>
	<path d="M543.5,366.61v-14.37c-9.48,11.21-25.86,17.81-43.96,17.81c-22.12,0-48.27-14.94-48.27-45.97
		c0-32.47,26.15-44.25,48.27-44.25c18.39,0,34.77,5.75,43.96,16.95v-19.25c0-14.08-12.07-23.27-30.46-23.27
		c-14.94,0-28.73,5.46-40.51,16.38l-13.79-24.42c16.95-14.94,38.79-21.84,60.63-21.84c31.61,0,60.63,12.64,60.63,52.58v89.65H543.5z
		 M543.5,316.04c-6.03-8.05-17.53-12.07-29.31-12.07c-14.37,0-26.15,7.76-26.15,20.97c0,12.93,11.78,20.4,26.15,20.4
		c11.78,0,23.27-4.02,29.31-12.07V316.04z"/>
	<path d="M614.18,322.93c10.06,9.48,30.74,18.96,47.98,18.96c15.8,0,23.27-5.46,23.27-14.08c0-9.77-12.07-13.22-27.87-16.38
		c-23.85-4.6-54.59-10.34-54.59-43.39c0-23.27,20.4-43.67,56.89-43.67c23.56,0,42.24,8.05,55.74,18.96l-14.37,25
		c-8.33-8.91-24.14-16.09-41.09-16.09c-13.22,0-21.84,4.88-21.84,12.93c0,8.62,10.92,11.78,26.43,14.94
		c23.85,4.6,55.74,10.92,55.74,45.4c0,25.57-21.55,44.54-60.05,44.54c-24.14,0-47.41-8.05-62.06-21.55L614.18,322.93z"/>
	<path d="M913.85,366.61v-87.63c0-12.93-5.75-22.12-20.69-22.12c-12.93,0-23.56,8.62-28.73,16.09v93.67h-36.78v-87.63
		c0-12.93-5.75-22.12-20.69-22.12c-12.64,0-23.27,8.62-28.73,16.38v93.38h-36.49V227.83h36.49v18.1
		c5.75-8.33,24.14-21.55,45.4-21.55c20.4,0,33.33,9.48,38.5,25.28c8.05-12.64,26.43-25.28,47.7-25.28c25.57,0,40.8,13.5,40.8,41.95
		v100.28H913.85z"/>
	<path d="M977.05,185.59c0-12.07,10.06-21.84,21.84-21.84c12.07,0,21.84,9.77,21.84,21.84s-9.77,21.84-21.84,21.84
		C987.11,207.43,977.05,197.66,977.05,185.59z M980.79,366.61V227.83h36.49v138.78H980.79z"/>
	<path d="M1054.91,332.13v-72.41h-22.99v-31.89h22.99V189.9h36.78v37.93h28.16v31.89h-28.16v62.64c0,8.62,4.6,15.23,12.64,15.23
		c5.46,0,10.63-2.01,12.64-4.02l7.76,27.58c-5.46,4.88-15.23,8.91-30.46,8.91C1068.7,370.05,1054.91,356.84,1054.91,332.13z"/>
	<g>
		<path class="st0" d="M1222.42,366.61v-14.37c-9.48,11.21-25.86,17.81-43.96,17.81c-22.12,0-48.27-14.94-48.27-45.97
			c0-32.47,26.15-44.25,48.27-44.25c18.39,0,34.77,5.75,43.96,16.95v-19.25c0-14.08-12.07-23.27-30.46-23.27
			c-14.94,0-28.73,5.46-40.51,16.38l-13.79-24.42c16.95-14.94,38.79-21.84,60.63-21.84c31.61,0,60.63,12.64,60.63,52.58v89.65
			H1222.42z M1222.42,316.04c-6.03-8.05-17.53-12.07-29.31-12.07c-14.37,0-26.15,7.76-26.15,20.97c0,12.93,11.78,20.4,26.15,20.4
			c11.78,0,23.27-4.02,29.31-12.07V316.04z"/>
		<path class="st0" d="M1313.5,430.55h-36.49V233.91h36.49v17.98c10.63-13.86,25.86-21.52,42.81-21.52
			c35.63,0,61.49,27.12,61.49,74.59s-25.86,74.88-61.49,74.88c-16.38,0-31.61-7.08-42.81-21.82V430.55z M1344.81,263.69
			c-11.78,0-25.28,7.08-31.32,16.21v50.41c6.03,8.84,19.54,16.21,31.32,16.21c20.97,0,35.05-16.8,35.05-41.57
			C1379.87,280.49,1365.79,263.69,1344.81,263.69z"/>
	</g>
	<path d="M1524.67,376.3v-14.74c-9.48,11.5-25.86,18.28-43.96,18.28c-22.12,0-48.27-15.33-48.27-47.17
		c0-33.31,26.15-45.4,48.27-45.4c18.39,0,34.77,5.9,43.96,17.39v-19.75c0-14.45-12.07-23.88-30.46-23.88
		c-14.94,0-28.73,5.6-40.51,16.8l-13.79-25.06c16.95-15.33,38.79-22.41,60.63-22.41c31.61,0,60.63,12.97,60.63,53.95v91.98H1524.67z
		 M1524.67,324.42c-6.03-8.26-17.53-12.38-29.31-12.38c-14.37,0-26.15,7.96-26.15,21.52c0,13.27,11.78,20.93,26.15,20.93
		c11.78,0,23.27-4.13,29.31-12.38V324.42z"/>
	<path d="M1600.81,340.93v-74.29h-22.99v-32.72h22.99V195h36.78v38.91h28.16v32.72h-28.16v64.27c0,8.84,4.6,15.62,12.64,15.62
		c5.46,0,10.63-2.06,12.64-4.13l7.76,28.3c-5.46,5.01-15.23,9.14-30.46,9.14C1614.6,379.84,1600.81,366.28,1600.81,340.93z"/>
	<path d="M1749.92,230.37c41.37,0,69.53,31.84,69.53,78.42v8.26h-103.15c2.3,17.98,16.38,33.02,39.94,33.02
		c12.93,0,28.16-5.31,37.07-14.15l16.09,24.17c-14.08,13.27-35.63,19.75-57.18,19.75c-42.24,0-74.13-29.19-74.13-74.88
		C1678.09,263.69,1707.69,230.37,1749.92,230.37z M1715.73,291.69h68.38c-0.86-13.56-10.06-31.54-34.19-31.54
		C1727.23,260.15,1717.46,277.54,1715.73,291.69z"/>
	<path d="M1842.15,376.3V179.67h36.49V376.3H1842.15z"/>
	<line class="st1" x1="451.27" y1="417.19" x2="1258.9" y2="417.19"/>
	<line class="st1" x1="1330.51" y1="417.19" x2="1880.41" y2="417.19"/>
	<g>
		<path class="st0" d="M205.78,227.7L37.76,510.8c-4.03,6.8,3.69,14.48,10.46,10.41l137.01-75.23c11.35-6.81,19.01-18.39,20.85-31.5
			l10.91-182.21C218.14,224.05,210.02,220.55,205.78,227.7z"/>
		<path class="st0" d="M229.51,227.7L397.54,510.8c4.03,6.8-3.69,14.48-10.46,10.41l-138.31-75.23
			c-11.35-6.81-19.01-18.39-20.85-31.5l-9.6-182.21C217.15,224.05,225.27,220.55,229.51,227.7z"/>
	</g>
</g>
</svg>
